0
SECTION
2
HEADER
9
$INSUNITS
70
4
9
$ACADVER
1
AC1014
9
$HANDSEED
5
FFFF
0
ENDSEC
0
SECTION
2
TABLES
0
TABLE
2
VPORT
5
8
100
AcDbSymbolTable
0
ENDTAB
0
TABLE
2
LTYPE
5
5
100
AcDbSymbolTable
0
LTYPE
5
14
100
AcDbSymbolTableRecord
100
AcDbLinetypeTableRecord
2
BYBLOCK
70
0
0
LTYPE
5
15
100
AcDbSymbolTableRecord
100
AcDbLinetypeTableRecord
2
BYLAYER
70
0
0
LTYPE
5
16
100
AcDbSymbolTableRecord
100
AcDbLinetypeTableRecord
2
DASHED
70
0
3
Dashed __ __ __ __ __ __ __ __ __ __ __ __ __ _
72
65
73
2
40
0.75
49
0.5
74
0
49
-0.25
74
0
0
ENDTAB
0
TABLE
2
LAYER
5
2
100
AcDbSymbolTable
70
2
0
LAYER
5
50
100
AcDbSymbolTableRecord
100
AcDbLayerTableRecord
2
0
70
0
62
7
6
CONTINUOUS
0
ENDTAB
0
TABLE
2
STYLE
5
3
100
AcDbSymbolTable
70
1
0
STYLE
5
11
100
AcDbSymbolTableRecord
100
AcDbTextStyleTableRecord
2
STANDARD
70
0
0
ENDTAB
0
TABLE
2
VIEW
5
6
100
AcDbSymbolTable
70
0
0
ENDTAB
0
TABLE
2
UCS
5
7
100
AcDbSymbolTable
70
0
0
ENDTAB
0
TABLE
2
APPID
5
9
100
AcDbSymbolTable
70
2
0
APPID
5
12
100
AcDbSymbolTableRecord
100
AcDbRegAppTableRecord
2
ACAD
70
0
0
ENDTAB
0
TABLE
2
DIMSTYLE
5
A
100
AcDbSymbolTable
70
1
0
ENDTAB
0
TABLE
2
BLOCK_RECORD
5
1
100
AcDbSymbolTable
70
1
0
BLOCK_RECORD
5
1F
100
AcDbSymbolTableRecord
100
AcDbBlockTableRecord
2
*MODEL_SPACE
0
BLOCK_RECORD
5
1B
100
AcDbSymbolTableRecord
100
AcDbBlockTableRecord
2
*PAPER_SPACE
0
ENDTAB
0
ENDSEC
0
SECTION
2
BLOCKS
0
BLOCK
5
20
100
AcDbEntity
100
AcDbBlockBegin
2
*MODEL_SPACE
0
ENDBLK
5
21
100
AcDbEntity
100
AcDbBlockEnd
0
BLOCK
5
1C
100
AcDbEntity
100
AcDbBlockBegin
2
*PAPER_SPACE
0
ENDBLK
5
1D
100
AcDbEntity
100
AcDbBlockEnd
0
ENDSEC
0
SECTION
2
ENTITIES
0
LWPOLYLINE
5
100
100
AcDbEntity
8
0
100
AcDbPolyline
90
4
70
1
43
0.0
10
-5.999999999974448
20
-80.25000000000118
10
-5.9999999999778444
20
-60.25000000000118
42
-0.99999999999999989
10
5.9999999999778577
20
-60.249999999998813
10
5.9999999999744595
20
-80.249999999998792
42
-0.99999999999999989
0
CIRCLE
5
101
100
AcDbEntity
8
0
100
AcDbCircle
10
16.478868200557734
20
56.850000000000016
30
0
40
1.6000000000000014
210
0
220
-0
230
1
0
LWPOLYLINE
5
102
100
AcDbEntity
8
0
100
AcDbPolyline
90
4
70
1
43
0.0
10
12.500000000000009
20
35.399999999999999
10
-12.499999999999991
20
35.399999999999999
42
-0.99999999999999989
10
-12.499999999999991
20
38.600000000000001
10
12.500000000000009
20
38.600000000000001
42
-0.99999999999999989
0
CIRCLE
5
103
100
AcDbEntity
8
0
100
AcDbCircle
10
14.824761832755105
20
75.756522298313428
30
0
40
1.5999999999999992
210
0
220
-0
230
1
0
LWPOLYLINE
5
104
100
AcDbEntity
8
0
100
AcDbPolyline
90
4
70
1
43
0.0
10
26.00000000000151
20
-38.599999999990779
10
18.000000000001513
20
-38.599999999983254
42
-0.99999999999999989
10
17.999999999998504
20
-35.40000000001676
10
25.999999999998501
20
-35.400000000009236
42
-0.99999999999999989
0
LWPOLYLINE
5
105
100
AcDbEntity
8
0
100
AcDbPolyline
90
8
70
1
43
0.0
10
-10
20
-39
10
-9.9999999999999947
20
-36
42
-0.41421356237309503
10
-3.9999999999999942
20
-29.999999999999996
10
4.0000000000000027
20
-30
42
-0.41421356237309492
10
10.000000000000002
20
-36
10
9.9999999999999982
20
-39
42
-0.41421356237309498
10
4.0000000000000027
20
-45
10
-3.9999999999999942
20
-45.000000000000007
42
-0.41421356237309498
0
CIRCLE
5
106
100
AcDbEntity
8
0
100
AcDbCircle
10
-16.478868200557738
20
56.850000000000009
30
0
40
1.5999999999999992
210
0
220
-0
230
1
0
LWPOLYLINE
5
107
100
AcDbEntity
8
0
100
AcDbPolyline
90
4
70
1
43
0.0
10
5.000000074505806
20
61.300216907630116
10
-5.0000000745058024
20
61.300216907630116
42
-0.99999999999999989
10
-5.0000000745058006
20
71.300216907630116
10
5.000000074505806
20
71.300216907630116
42
-0.99999999999999989
0
CIRCLE
5
108
100
AcDbEntity
8
0
100
AcDbCircle
10
-14.824761832755101
20
75.756522298313428
30
0
40
1.6000000000000014
210
0
220
-0
230
1
0
LWPOLYLINE
5
109
100
AcDbEntity
8
0
100
AcDbPolyline
90
4
70
1
43
0.0
10
-25.99999999999849
20
-35.400000000009236
10
-17.999999999998497
20
-35.400000000001711
42
-0.99999999999999989
10
-18.000000000001503
20
-38.59999999999831
10
-26.000000000001503
20
-38.599999999990793
42
-0.99999999999999989
0
LWPOLYLINE
5
110
100
AcDbEntity
8
0
100
AcDbPolyline
90
66
70
1
43
0.0
10
-16.652735931848525
20
80.032110643130864
42
0.41421356237309476
10
-19.361112033947041
20
77.759513254770638
10
-21.335531263497845
20
55.191798193427246
42
-0.61747419696255101
10
-29.647673134263599
20
51.898861683118163
10
-81.730334495563483
20
98.428592237514763
42
-0.1176292508220413
10
-86.498549561035219
20
105.28780068120733
42
0.20591749431577311
10
-94.551760137265376
20
113.4375102752746
10
-119.13067824075847
20
123.40303503775573
42
0.70402569123082426
10
-125.40279996118807
20
116.38238850295389
10
-112.74091312651116
20
93.077635324349274
42
0.20591749431577305
10
-103.7386271477319
20
85.990265275522134
42
-0.11762925082204186
10
-96.38747536891438
20
82.022245251706281
10
-44.675326478771886
20
35.823524000586332
42
-0.21357357506837232
10
-38.000000000000007
20
20.908663104396833
10
-38
20
-20.908663104396837
42
-0.21357357506837221
10
-44.675326478771886
20
-35.823524000586325
10
-96.387475368914409
20
-82.022245251706281
42
-0.11762925082204163
10
-103.73862714773189
20
-85.99026527552212
42
0.20591749431577133
10
-112.74091312651115
20
-93.077635324349274
10
-125.40279996118805
20
-116.38238850295389
42
0.70402569123082914
10
-119.13067824075847
20
-123.40303503775571
10
-94.551760137265362
20
-113.43751027527463
42
0.20591749431577502
10
-86.498549561035219
20
-105.28780068120736
42
-0.11762925082204141
10
-81.730334495563454
20
-98.428592237514778
10
-29.155970629087214
20
-51.4595833420966
42
-0.59835015664520574
10
-20.875924110071146
20
-54.475132969520281
10
-16.121730425690433
20
-87.465963294492397
42
0.18037834710471332
10
-14.446548364573298
20
-90.532071965708923
10
-10.409250351375139
20
-94.029274267840236
42
0.1803783471047177
10
-7.1355542737832165
20
-95.25
10
7.1355542737832378
20
-95.25
42
0.18037834710471634
10
10.409250351375158
20
-94.029274267840236
10
14.446548364573331
20
-90.532071965708923
42
0.18037834710471506
10
16.121730425690451
20
-87.465963294492397
10
20.875924110071146
20
-54.475132969520274
42
-0.59835015664520619
10
29.155970629087218
20
-51.459583342096607
10
81.730334495563483
20
-98.428592237514763
42
-0.1176292508220413
10
86.498549561035219
20
-105.28780068120733
42
0.20591749431577311
10
94.551760137265376
20
-113.4375102752746
10
119.13067824075847
20
-123.40303503775573
42
0.70402569123082426
10
125.40279996118807
20
-116.38238850295389
10
112.74091312651116
20
-93.077635324349274
42
0.20591749431577305
10
103.7386271477319
20
-85.990265275522134
42
-0.11762925082204186
10
96.38747536891438
20
-82.022245251706281
10
44.67532647877178
20
-35.823524000586232
42
-0.21357357506837221
10
37.999999999999901
20
-20.908663104396744
10
37.999999999999893
20
20.908663104396741
42
-0.21357357506837221
10
44.67532647877178
20
35.823524000586232
10
96.387475368914409
20
82.022245251706281
42
-0.11762925082204163
10
103.73862714773189
20
85.99026527552212
42
0.20591749431577133
10
112.74091312651115
20
93.077635324349274
10
125.40279996118805
20
116.38238850295389
42
0.70402569123082914
10
119.13067824075847
20
123.40303503775571
10
94.551760137265362
20
113.43751027527463
42
0.20591749431577472
10
86.498549561035219
20
105.28780068120736
42
-0.11762925082204163
10
81.730334495563454
20
98.428592237514778
10
29.647673134263592
20
51.89886168311817
42
-0.61747419696255035
10
21.335531263497849
20
55.191798193427253
10
19.361112033947045
20
77.759513254770638
42
0.41421356237309609
10
16.652735931848529
20
80.032110643130849
10
12.282110643130842
20
79.649730477848323
42
0.35517262298977276
10
10.017510975223152
20
77.454621866309481
42
-0.37993717351037709
10
7.5350219504463034
20
75.25
10
-7.5350219504463016
20
75.25
42
-0.37993717351037926
10
-10.017510975223146
20
77.454621866309481
42
0.35517262298977376
10
-12.282110643130842
20
79.649730477848323
0
LWPOLYLINE
5
111
100
AcDbEntity
8
0
100
AcDbPolyline
90
8
70
1
43
0.0
10
118.98230916594704
20
-111.22526420565266
10
122.28502333089133
20
-116.83576253327533
42
-0.72143220521975149
10
119.16391071936091
20
-120.40954528571575
10
112.71946220312471
20
-117.70747247958423
42
-0.30216698487058352
10
111.18614567214215
20
-115.4019306624123
10
111.18614567214215
20
-112.49350514092113
42
-0.41421356237309503
10
113.68614567214215
20
-109.99350514092113
10
116.82788002343402
20
-109.99350514092116
42
-0.26568741828157566
0
LWPOLYLINE
5
112
100
AcDbEntity
8
0
100
AcDbPolyline
90
8
70
1
43
0.0
10
116.82788002343401
20
109.99350514092114
10
113.68614567214215
20
109.99350514092113
42
-0.41421356237309503
10
111.18614567214215
20
112.49350514092113
10
111.18614567214215
20
115.40193066241228
42
-0.3021669848705843
10
112.71946220312472
20
117.7074724795842
10
119.1639107193609
20
120.40954528571575
42
-0.72143220521974993
10
122.28502333089132
20
116.83576253327536
10
118.982309165947
20
111.22526420565265
42
-0.26568741828157494
0
LWPOLYLINE
5
113
100
AcDbEntity
8
0
100
AcDbPolyline
90
4
70
1
43
0.0
10
98.400000000000048
20
90.000001341104507
42
0.99999999999999989
10
101.60000000000005
20
90.000001341104507
10
101.60000000000005
20
94.000001400709152
42
0.99999999999999989
10
98.400000000000048
20
94.000001400709152
0
LWPOLYLINE
5
114
100
AcDbEntity
8
0
100
AcDbPolyline
90
4
70
1
43
0.0
10
109.99999865889562
20
98.400000000000048
42
0.99999999999999989
10
109.99999865889562
20
101.60000000000005
10
105.99999859929098
20
101.60000000000005
42
0.99999999999999989
10
105.99999859929098
20
98.400000000000048
0
LWPOLYLINE
5
115
100
AcDbEntity
8
0
100
AcDbPolyline
90
4
70
1
43
0.0
10
90.000001341104507
20
101.60000000000005
42
0.99999999999999989
10
90.000001341104507
20
98.400000000000048
10
94.000001400709152
20
98.400000000000048
42
0.99999999999999989
10
94.000001400709152
20
101.60000000000005
0
CIRCLE
5
116
100
AcDbEntity
8
0
100
AcDbCircle
10
99.999999999999972
20
100.00000000000016
30
0
40
2.9999999999999893
210
-0
220
0
230
1
0
LWPOLYLINE
5
117
100
AcDbEntity
8
0
100
AcDbPolyline
90
4
70
1
43
0.0
10
101.60000000000004
20
109.99999865889562
42
0.99999999999999989
10
98.400000000000034
20
109.99999865889562
10
98.400000000000034
20
105.99999859929098
42
0.99999999999999989
10
101.60000000000004
20
105.99999859929098
0
LWPOLYLINE
5
118
100
AcDbEntity
8
0
100
AcDbPolyline
90
8
70
1
43
0.0
10
-118.98230916594704
20
111.22526420565266
10
-122.28502333089133
20
116.83576253327533
42
-0.72143220521975149
10
-119.16391071936091
20
120.40954528571575
10
-112.71946220312471
20
117.70747247958423
42
-0.30216698487058352
10
-111.18614567214215
20
115.4019306624123
10
-111.18614567214215
20
112.49350514092113
42
-0.41421356237309503
10
-113.68614567214215
20
109.99350514092113
10
-116.82788002343402
20
109.99350514092116
42
-0.26568741828157566
0
LWPOLYLINE
5
119
100
AcDbEntity
8
0
100
AcDbPolyline
90
4
70
1
43
0.0
10
-98.400000000000034
20
109.99999865889562
42
0.99999999999999989
10
-101.60000000000004
20
109.99999865889562
10
-101.60000000000004
20
105.99999859929098
42
0.99999999999999989
10
-98.400000000000034
20
105.99999859929098
0
CIRCLE
5
120
100
AcDbEntity
8
0
100
AcDbCircle
10
-100.00000000000006
20
100.00000000000006
30
0
40
2.9999999999999893
210
0
220
0
230
1
0
LWPOLYLINE
5
121
100
AcDbEntity
8
0
100
AcDbPolyline
90
4
70
1
43
0.0
10
-90.000001341104507
20
98.400000000000048
42
0.99999999999999989
10
-90.000001341104507
20
101.60000000000005
10
-94.000001400709152
20
101.60000000000005
42
0.99999999999999989
10
-94.000001400709152
20
98.400000000000048
0
LWPOLYLINE
5
122
100
AcDbEntity
8
0
100
AcDbPolyline
90
4
70
1
43
0.0
10
-109.99999865889562
20
101.60000000000005
42
0.99999999999999989
10
-109.99999865889562
20
98.400000000000048
10
-105.99999859929098
20
98.400000000000048
42
0.99999999999999989
10
-105.99999859929098
20
101.60000000000005
0
LWPOLYLINE
5
123
100
AcDbEntity
8
0
100
AcDbPolyline
90
4
70
1
43
0.0
10
-101.60000000000005
20
90.000001341104507
42
0.99999999999999989
10
-98.400000000000048
20
90.000001341104507
10
-98.400000000000048
20
94.000001400709152
42
0.99999999999999989
10
-101.60000000000005
20
94.000001400709152
0
LWPOLYLINE
5
124
100
AcDbEntity
8
0
100
AcDbPolyline
90
4
70
1
43
0.0
10
-98.400000000000048
20
-90.000001341104507
42
0.99999999999999989
10
-101.60000000000005
20
-90.000001341104507
10
-101.60000000000005
20
-94.000001400709152
42
0.99999999999999989
10
-98.400000000000048
20
-94.000001400709152
0
LWPOLYLINE
5
125
100
AcDbEntity
8
0
100
AcDbPolyline
90
4
70
1
43
0.0
10
-109.99999865889562
20
-98.400000000000048
42
0.99999999999999989
10
-109.99999865889562
20
-101.60000000000005
10
-105.99999859929098
20
-101.60000000000005
42
0.99999999999999989
10
-105.99999859929098
20
-98.400000000000048
0
LWPOLYLINE
5
126
100
AcDbEntity
8
0
100
AcDbPolyline
90
4
70
1
43
0.0
10
-90.000001341104507
20
-101.60000000000005
42
0.99999999999999989
10
-90.000001341104507
20
-98.400000000000048
10
-94.000001400709152
20
-98.400000000000048
42
0.99999999999999989
10
-94.000001400709152
20
-101.60000000000005
0
CIRCLE
5
127
100
AcDbEntity
8
0
100
AcDbCircle
10
-99.999999999999972
20
-100.00000000000016
30
0
40
2.9999999999999893
210
0
220
-0
230
1
0
LWPOLYLINE
5
128
100
AcDbEntity
8
0
100
AcDbPolyline
90
4
70
1
43
0.0
10
-101.60000000000004
20
-109.99999865889562
42
0.99999999999999989
10
-98.400000000000034
20
-109.99999865889562
10
-98.400000000000034
20
-105.99999859929098
42
0.99999999999999989
10
-101.60000000000004
20
-105.99999859929098
0
LWPOLYLINE
5
129
100
AcDbEntity
8
0
100
AcDbPolyline
90
8
70
1
43
0.0
10
-112.71946220312472
20
-117.7074724795842
10
-119.1639107193609
20
-120.40954528571575
42
-0.72143220521974993
10
-122.28502333089132
20
-116.83576253327536
10
-118.982309165947
20
-111.22526420565265
42
-0.26568741828157494
10
-116.82788002343401
20
-109.99350514092114
10
-113.68614567214215
20
-109.99350514092113
42
-0.41421356237309503
10
-111.18614567214215
20
-112.49350514092113
10
-111.18614567214215
20
-115.40193066241228
42
-0.3021669848705843
0
LWPOLYLINE
5
130
100
AcDbEntity
8
0
100
AcDbPolyline
90
4
70
1
43
0.0
10
14.967157287525382
20
-12.704415587728427
10
17.795584412271566
20
-15.532842712474617
42
-0.99999999999999989
10
15.532842712474615
20
-17.79558441227157
10
12.704415587728429
20
-14.967157287525378
42
-0.99999999999999989
0
LWPOLYLINE
5
131
100
AcDbEntity
8
0
100
AcDbPolyline
90
4
70
1
43
0.0
10
-24.000000000000004
20
25
42
0.99999999999999989
10
-30
20
25
10
-30
20
-25
42
0.99999999999999989
10
-24.000000000000004
20
-25
0
LWPOLYLINE
5
132
100
AcDbEntity
8
0
100
AcDbPolyline
90
4
70
1
43
0.0
10
-14.967157287525389
20
12.704415587728423
10
-17.79558441227158
20
15.532842712474613
42
-0.99999999999999989
10
-15.532842712474629
20
17.795584412271566
10
-12.704415587728434
20
14.967157287525376
42
-0.99999999999999989
0
LWPOLYLINE
5
133
100
AcDbEntity
8
0
100
AcDbPolyline
90
4
70
1
43
0.0
10
-12.704415587728427
20
-14.967157287525383
10
-15.532842695615876
20
-17.795584395412831
42
-1.0000000074505806
10
-17.795584412271566
20
-15.532842712474617
10
-14.967157287525378
20
-12.704415587728427
42
-0.99999999999999989
0
LWPOLYLINE
5
134
100
AcDbEntity
8
0
100
AcDbPolyline
90
4
70
1
43
0.0
10
17.795584412271566
20
15.532842712474618
42
0.99999999999999989
10
15.532842712474613
20
17.795584412271573
10
12.704415587728423
20
14.967157287525383
42
0.99999999999999989
10
14.967157287525376
20
12.70441558772843
0
LWPOLYLINE
5
135
100
AcDbEntity
8
0
100
AcDbPolyline
90
4
70
1
43
0.0
10
30
20
25
42
0.99999999999999989
10
24.000000000000004
20
25
10
24.000000000000004
20
-25
42
0.99999999999999989
10
30
20
-25
0
LWPOLYLINE
5
136
100
AcDbEntity
8
0
100
AcDbPolyline
90
4
70
1
43
0.0
10
98.400000000000034
20
-109.99999865889562
42
0.99999999999999989
10
101.60000000000004
20
-109.99999865889562
10
101.60000000000004
20
-105.99999859929098
42
0.99999999999999989
10
98.400000000000034
20
-105.99999859929098
0
CIRCLE
5
137
100
AcDbEntity
8
0
100
AcDbCircle
10
100.00000000000006
20
-100.00000000000006
30
0
40
2.9999999999999893
210
0
220
-0
230
1
0
LWPOLYLINE
5
138
100
AcDbEntity
8
0
100
AcDbPolyline
90
4
70
1
43
0.0
10
90.000001341104507
20
-98.400000000000048
42
0.99999999999999989
10
90.000001341104507
20
-101.60000000000005
10
94.000001400709152
20
-101.60000000000005
42
0.99999999999999989
10
94.000001400709152
20
-98.400000000000048
0
LWPOLYLINE
5
139
100
AcDbEntity
8
0
100
AcDbPolyline
90
4
70
1
43
0.0
10
109.99999865889562
20
-101.60000000000005
42
0.99999999999999989
10
109.99999865889562
20
-98.400000000000048
10
105.99999859929098
20
-98.400000000000048
42
0.99999999999999989
10
105.99999859929098
20
-101.60000000000005
0
LWPOLYLINE
5
140
100
AcDbEntity
8
0
100
AcDbPolyline
90
4
70
1
43
0.0
10
101.60000000000005
20
-90.000001341104507
42
0.99999999999999989
10
98.400000000000048
20
-90.000001341104507
10
98.400000000000048
20
-94.000001400709152
42
0.99999999999999989
10
101.60000000000005
20
-94.000001400709152
0
LWPOLYLINE
5
141
100
AcDbEntity
8
0
100
AcDbPolyline
90
6
70
1
43
0.0
10
-0.99999999999997868
20
45.908656569487661
10
-3.999999999999968
20
51.104808992194307
10
-2.9999999999999805
20
52.836859799763189
10
3.0000000000000338
20
52.836859799763182
10
4.0000000000000169
20
51.104808992194314
10
1.0000000000000053
20
45.908656569487682
0
LWPOLYLINE
5
142
100
AcDbEntity
8
0
100
AcDbPolyline
90
36
70
1
43
0.0
10
-8.6602540378443837
20
1.7091034656192168
42
0.26794919243116361
10
-9.9102540378447195
20
3.8741669750805063
10
-10.326279441638228
20
4.1143593539503289
42
-0.99999999999999989
10
-8.7262794416382352
20
6.8856406460605326
10
-8.3102540378439738
20
6.6454482671902815
42
0.26794919243107973
10
-5.8102540378443184
20
6.6454482671904733
10
-2.8500000000000036
20
8.3545517328095666
42
0.26794919243112364
10
-1.6000000000000032
20
10.519615242270666
10
-1.6000000000000028
20
11.000000000010864
42
-0.99999999999999989
10
1.5999999999999972
20
11.000000000010864
10
1.5999999999999988
20
10.519615242270666
42
0.26794919243112264
10
2.8499999999999921
20
8.3545517328095737
10
5.8102540378443557
20
6.6454482671904547
42
0.26794919243110271
10
8.3102540378441887
20
6.6454482671903552
10
8.7262794416382388
20
6.8856406460605291
42
-0.99999999999999989
10
10.326279441638233
20
4.1143593539503236
10
9.9102540378445454
20
3.8741669750803656
42
0.26794919243114357
10
8.6602540378443802
20
1.7091034656191706
10
8.6602540378443713
20
-1.7091034656191351
42
0.26794919243112075
10
9.9102540378443678
20
-3.8741669750802248
10
10.326279441638231
20
-4.1143593539503325
42
-0.99999999999999989
10
8.7262794416382317
20
-6.8856406460605353
10
8.3102540378443912
20
-6.645448267190428
42
0.26794919243112275
10
5.8102540378443868
20
-6.6454482671904325
10
2.8499999999999304
20
-8.3545517328096146
42
0.2679491924311645
10
1.5999999999999273
20
-10.519615242271092
10
1.6000000000000016
20
-11.000000000010864
42
-0.99999999999999989
10
-1.5999999999999983
20
-11.000000000010864
10
-1.60000000000008
20
-10.51961524227023
42
0.26794919243108223
10
-2.8500000000000805
20
-8.3545517328095205
10
-5.8102540378445067
20
-6.6454482671903614
42
0.2679491924311837
10
-8.3102540378449987
20
-6.6454482671906625
10
-8.7262794416382317
20
-6.8856406460605371
42
-0.99999999999999989
10
-10.326279441638233
20
-4.1143593539503307
10
-9.910254037843881
20
-3.8741669750798113
42
0.26794919243106119
10
-8.6602540378443837
20
-1.7091034656190014
0
CIRCLE
5
143
100
AcDbEntity
8
0
100
AcDbCircle
10
-8.6875878938525481
20
-87.962721011562408
30
0
40
1.5999999999999992
210
0
220
-0
230
1
0
LWPOLYLINE
5
144
100
AcDbEntity
8
0
100
AcDbPolyline
90
4
70
1
43
0.0
10
-13.804923325161164
20
-63.66952806105428
10
-15.516520760458734
20
-51.792220504554471
42
-0.9999999925494194
10
-12.349238748284314
20
-51.335794546313373
10
-10.637641316387382
20
-63.213102079215091
42
-0.99999999999999989
0
CIRCLE
5
145
100
AcDbEntity
8
0
100
AcDbCircle
10
8.6875878938525783
20
-87.962721011562408
30
0
40
1.5999999999999992
210
0
220
-0
230
1
0
LWPOLYLINE
5
146
100
AcDbEntity
8
0
100
AcDbPolyline
90
4
70
1
43
0.0
10
10.637641316387388
20
-63.213102079215091
10
12.34923874828432
20
-51.335794546313373
42
-0.99999999999999989
10
15.516520757058119
20
-51.792220528152562
10
13.804923321760537
20
-63.66952808465237
42
-0.9999999925494194
0
ENDSEC
0
SECTION
2
OBJECTS
0
DICTIONARY
5
C
100
AcDbDictionary
3
ACAD_GROUP
350
D
3
ACAD_MLINESTYLE
350
17
0
DICTIONARY
5
D
100
AcDbDictionary
0
DICTIONARY
5
1A
330
C
100
AcDbDictionary
0
DICTIONARY
5
17
100
AcDbDictionary
0
ENDSEC
0
EOF
